<?xml version="1.0" encoding="utf-8"?>
<!-- Generator: Adobe Illustrator 19.2.1, SVG Export Plug-In . SVG Version: 6.00 Build 0)  -->
<svg version="1.1" id="Ebene_1" xmlns="http://www.w3.org/2000/svg" xmlns:xlink="http://www.w3.org/1999/xlink" x="0px" y="0px"
	 viewBox="0 0 500 230.5" style="enable-background:new 0 0 500 230.5;" xml:space="preserve">
<style type="text/css">
	.st0{fill:#A1F500;}
	.st1{fill:#1C2932;}
</style>
<g>
	<g>
		<polygon class="st0" points="82.2,11.6 82.2,27.8 112.2,27.8 99,33.9 99,118.8 115.5,118.8 115.5,27.9 132.4,27.9 132.4,11.6 		
			"/>
		<polygon class="st0" points="326.5,11.6 326.5,27.8 356.5,27.8 343.3,33.9 343.3,118.8 359.8,118.8 359.8,27.9 376.7,27.9 
			376.7,11.6 		"/>
		<polygon class="st0" points="211.2,11.7 211.2,118.9 257.1,118.9 257.1,102.8 227.7,102.8 227.7,11.7 		"/>
		<polygon class="st0" points="268.9,11.6 268.9,118.9 315.5,118.9 315.5,102.6 285.5,102.6 285.5,73.4 307.3,73.4 307.3,57.1 
			285.5,57.1 285.5,27.9 315.5,27.9 315.5,11.6 		"/>
		<rect x="388.7" y="11.7" class="st0" width="16.5" height="107.1"/>
		<path class="st0" d="M446,43.2h2l5.1,35.3h-12.2L446,43.2z M435.6,11.7l-11.4,66.5l-2.8,16.1l-4.2,24.5h17.4l3.9-24.6h17.2l4,24.6
			h17.2L458.3,11.7H435.6z"/>
		<path class="st0" d="M51.2,43.2h2l5.1,35.3H46.1L51.2,43.2z M40.9,11.7L22.3,118.9h17.2l4-24.6h17.2l3.9,24.6H82l-4.2-24.5
			l-2.8-16.1L69.7,47l-2.4-13.9l-3.7-21.4H40.9z"/>
		<polygon class="st0" points="180.6,11.6 180.6,57.1 160.6,57.1 160.6,11.6 144.1,11.6 144.1,118.8 160.6,118.8 160.6,73.4 
			180.6,73.4 180.6,118.8 197.1,118.8 197.1,11.6 		"/>
	</g>
	<g>
		<path class="st1" d="M74.7,174.4c-3.3-1.7-7.1-2.9-11.1-3.6c-4-0.7-8.1-1-12.1-1c-3.3,0-6.7-0.3-10-0.8c-3.2-0.5-6.2-1.5-8.7-3
			c-2.5-1.4-4.6-3.3-6.1-5.8c-1.6-2.4-2.3-5.6-2.3-9.4c0.1-3.4,0.9-6.3,2.4-8.6c1.5-2.4,3.5-4.3,6-5.7c2.5-1.5,5.3-2.5,8.5-3.2
			c5.4-1.1,11.1-1.3,16.8-0.5c2.2,0.3,4.5,0.9,6.6,1.6c2.1,0.8,4.1,1.8,5.9,3.1c1.8,1.3,3.3,2.9,4.6,4.7h5.7l0-0.9l-1.1-1.5
			c-1.5-2-3.1-3.8-4.8-5.4c-1.8-1.6-3.8-2.9-6.1-4c-2.3-1.1-4.9-1.9-7.8-2.4c-2.8-0.5-6-0.8-9.3-0.8c-4,0-7.9,0.4-11.5,1.2
			c-3.7,0.8-7.2,2.1-10.3,3.9c-3.2,1.8-5.8,4.3-7.7,7.3c-2,3-3,6.8-3,11.2c0,4.6,0.9,8.5,2.8,11.6c1.8,3.1,4.3,5.6,7.4,7.5
			c3,1.8,6.5,3.1,10.4,3.9c3.8,0.7,7.8,1.1,11.9,1.1c3.2,0,6.7,0.2,10.2,0.7c3.4,0.5,6.7,1.4,9.6,2.8c2.8,1.4,5.2,3.3,7,5.6
			c1.8,2.3,2.7,5.4,2.7,9.3c0,3.4-0.9,6.4-2.6,8.7c-1.7,2.4-4,4.4-6.7,5.9c-2.8,1.5-5.9,2.7-9.3,3.4c-3.4,0.7-6.8,1.1-10.1,1.1
			c-5.6,0-11.1-1-16.3-3.1c-4.7-1.8-8.9-4.4-12.5-7.8h-6.2v1.1l1.1,1.1c3.8,3.7,8.6,7,14.1,9.7c5.6,2.7,12.2,4.1,19.7,4.1
			c3.6,0,7.3-0.4,11.2-1.2c3.9-0.8,7.6-2.2,11-4.1c3.4-1.9,6.2-4.4,8.4-7.5c2.2-3.1,3.4-7,3.4-11.6c0-4.6-1.1-8.5-3.2-11.6
			C80.8,178.6,78.1,176.2,74.7,174.4"/>
		<path class="st1" d="M479.8,181.7c-2.1-3.1-4.8-5.5-8.2-7.3c-3.3-1.7-7.1-2.9-11.1-3.6c-4-0.7-8.1-1-12.1-1c-3.3,0-6.7-0.3-10-0.8
			c-3.2-0.5-6.2-1.5-8.7-3c-2.5-1.4-4.6-3.3-6.1-5.8c-1.6-2.4-2.3-5.6-2.3-9.4c0.1-3.4,0.9-6.3,2.4-8.6c1.5-2.4,3.5-4.3,6-5.7
			c2.5-1.5,5.3-2.5,8.5-3.2c5.4-1.1,11.1-1.3,16.8-0.5c2.2,0.3,4.5,0.9,6.6,1.6c2.1,0.8,4.1,1.8,5.9,3.1c1.8,1.3,3.3,2.9,4.6,4.7
			h5.7l0-0.9l-1.1-1.5c-1.5-2-3.1-3.8-4.8-5.4c-1.8-1.6-3.8-2.9-6.1-4c-2.3-1.1-4.9-1.9-7.8-2.4c-2.8-0.5-6-0.8-9.3-0.8
			c-4,0-7.9,0.4-11.5,1.2c-3.7,0.8-7.2,2.1-10.3,3.9c-3.2,1.8-5.8,4.3-7.7,7.3c-2,3.1-3,6.8-3,11.2c0,4.6,0.9,8.5,2.8,11.6
			c1.8,3.1,4.3,5.6,7.4,7.5c3,1.8,6.5,3.1,10.4,3.9c3.8,0.7,7.8,1.1,11.9,1.1c3.2,0,6.7,0.2,10.2,0.7c3.4,0.5,6.7,1.4,9.6,2.8
			c2.8,1.4,5.2,3.3,7,5.6c1.8,2.3,2.7,5.4,2.7,9.3c0,3.4-0.9,6.4-2.6,8.7c-1.7,2.4-4,4.4-6.7,5.9c-2.8,1.5-5.9,2.7-9.3,3.4
			c-3.4,0.7-6.8,1.1-10.1,1.1c-5.6,0-11.1-1-16.3-3.1c-4.7-1.8-8.9-4.4-12.5-7.8h-6.2v1.1l1.1,1.1c3.8,3.7,8.6,7,14.1,9.7
			c5.6,2.7,12.2,4.1,19.7,4.1c3.6,0,7.3-0.4,11.2-1.2c3.9-0.8,7.6-2.2,11-4.1c3.4-1.9,6.2-4.4,8.4-7.5c2.2-3.1,3.4-7,3.4-11.6
			C482.9,188.7,481.9,184.8,479.8,181.7"/>
		<path class="st1" d="M249.1,187c-1.8,4.8-4.4,9.1-7.6,12.9c-3.2,3.7-7.2,6.8-11.8,9.1c-4.6,2.3-9.7,3.4-15.1,3.4
			c-5.4,0-10.4-1.1-14.8-3.3c-4.5-2.2-8.4-5.2-11.7-8.9c-3.3-3.7-5.9-8.1-7.8-12.9c-1.9-4.8-2.9-9.9-3.1-15.1
			c0-4.9,0.9-9.9,2.7-14.7c1.8-4.8,4.4-9.1,7.7-12.9c3.3-3.7,7.3-6.8,11.9-9.1c4.6-2.3,9.7-3.4,15.1-3.4c5.2,0,10.2,1.1,14.7,3.3
			c4.5,2.2,8.5,5.2,11.9,8.9c3.4,3.7,6,8,7.9,12.9c1.9,4.8,2.8,9.9,2.8,15.1C251.9,177.3,250.9,182.2,249.1,187 M245.4,141.5
			c-3.7-4.3-8.2-7.7-13.4-10.4c-5.2-2.6-11.1-4-17.3-4c-6,0-11.7,1.3-16.9,3.7c-5.2,2.5-9.7,5.8-13.5,10c-3.8,4.2-6.8,9-9,14.4
			c-2.2,5.4-3.3,11.2-3.3,17.1c0,5.7,1,11.2,3.1,16.6c2,5.3,5,10.1,8.7,14.3c3.8,4.2,8.3,7.6,13.4,10.2c5.2,2.6,11,4,17.3,4.2
			l0.1,0.2l0-0.2c6-0.1,11.6-1.4,16.8-3.9c5.1-2.5,9.6-5.8,13.4-9.9c3.8-4.1,6.8-9,9-14.4c2.2-5.4,3.3-11.1,3.3-17.1
			c0-5.5-1-11-3.1-16.4C252,150.6,249.1,145.8,245.4,141.5"/>
		<polygon class="st1" points="342.7,127.8 342.7,132.9 371.4,132.9 371.4,217 376.6,217 376.6,132.9 405.3,132.9 405.3,127.8 		"/>
		<path class="st1" d="M313.6,182.9c2.6-0.4,5-1.3,7.2-2.5c2.9-1.6,5.5-3.7,7.6-6.2c2.1-2.5,3.7-5.4,4.8-8.6
			c1.1-3.2,1.7-6.6,1.7-10.1c0-3.4-0.7-6.8-2-10c-1.3-3.2-3.1-6.2-5.4-8.8c-2.3-2.6-5.1-4.7-8.3-6.3c-3.3-1.6-6.8-2.4-10.6-2.4
			h-39.8v89.2h5.2v-84.1h34.5c2.8,0,5.6,0.6,8.1,1.9c2.6,1.3,4.9,2.9,6.8,5c1.9,2.1,3.4,4.5,4.5,7.2c1.1,2.7,1.6,5.5,1.6,8.4
			c0,2.8-0.5,5.7-1.4,8.3c-0.9,2.7-2.3,5.1-4.1,7.2c-1.7,2.1-3.9,3.8-6.4,5.1c-2.5,1.3-5.3,1.9-8.3,1.9h-29.7v5.1h27.5l0.1,0.1
			l22.4,33.9h6.2l-22.6-34.3L313.6,182.9z"/>
		<path class="st1" d="M156,136.4c-2.3-2.6-5.1-4.7-8.3-6.3c-3.3-1.6-6.8-2.4-10.6-2.4H99.7v89.2h5.2v-84.1h32.2
			c2.8,0,5.6,0.6,8.1,1.9c2.6,1.3,4.9,2.9,6.8,5c1.9,2.1,3.4,4.5,4.5,7.2c1.1,2.7,1.6,5.5,1.6,8.4c0,2.8-0.5,5.5-1.4,8.2
			c-0.9,2.7-2.3,5.1-4,7.3c-1.7,2.1-3.8,3.8-6.3,5.1c-2.5,1.3-5.3,1.9-8.4,1.9h-27.2v5.1H138c3.8,0,7.3-0.8,10.4-2.3
			c3.1-1.5,5.8-3.6,8-6.2c2.2-2.5,3.9-5.5,5.2-8.8c1.2-3.3,1.8-6.8,1.8-10.3c0-3.4-0.7-6.8-2-10C160.1,142,158.3,139,156,136.4"/>
	</g>
</g>
</svg>
